<?xml version="1.0" standalone="no"?>
<!DOCTYPE svg PUBLIC "-//W3C//DTD SVG 20010904//EN"
 "http://www.w3.org/TR/2001/REC-SVG-20010904/DTD/svg10.dtd">
<svg version="1.0" xmlns="http://www.w3.org/2000/svg"
 width="1200.000000pt" height="550.000000pt" viewBox="0 0 1200.000000 550.000000"
 preserveAspectRatio="xMidYMid meet">

<g transform="translate(0.000000,550.000000) scale(0.100000,-0.100000)"
fill="#000000" stroke="none">
<path d="M2100 4831 c-154 -34 -280 -87 -434 -183 -129 -80 -303 -211 -320
-240 -9 -15 -16 -49 -16 -78 0 -68 27 -112 86 -141 72 -35 105 -25 236 72 219
162 352 235 383 209 8 -7 15 -18 15 -24 0 -7 -29 -122 -65 -257 -36 -134 -100
-381 -141 -549 -41 -168 -77 -312 -80 -321 -3 -13 -70 -33 -272 -82 -481 -118
-726 -201 -857 -288 -128 -86 -171 -158 -162 -269 9 -106 34 -186 97 -315 127
-258 377 -524 835 -890 186 -148 214 -161 280 -129 40 19 79 70 96 125 5 19
21 129 34 244 52 445 140 959 218 1269 l22 90 140 29 c106 22 143 26 155 18
53 -40 96 -51 195 -50 55 0 121 4 148 8 37 6 47 5 47 -6 0 -26 -98 -208 -153
-284 -30 -43 -84 -112 -120 -154 -37 -42 -71 -93 -78 -112 -26 -80 39 -132
164 -133 119 0 130 8 313 235 122 152 185 254 274 441 l57 121 189 47 c262 64
404 94 408 87 2 -3 38 -150 81 -326 42 -176 86 -347 98 -379 29 -84 87 -142
149 -151 96 -14 178 19 205 83 21 50 13 168 -16 247 -66 176 -95 272 -140 457
-102 415 -195 923 -211 1147 -10 154 -27 220 -69 278 -88 121 -226 136 -374
41 -69 -44 -96 -101 -307 -643 -163 -418 -299 -720 -329 -729 -20 -7 -241 -46
-255 -46 -6 0 -11 21 -12 48 -2 136 -109 165 -340 92 -70 -22 -129 -38 -132
-36 -2 3 50 191 116 418 216 737 234 844 165 941 -57 82 -161 104 -323 68z
m1561 -906 c11 -71 34 -188 50 -259 16 -71 27 -131 26 -132 -2 -2 -66 -17
-142 -33 -77 -17 -169 -37 -205 -45 -35 -8 -66 -14 -68 -12 -2 2 18 55 43 117
26 62 87 219 137 348 49 129 97 248 106 265 l16 31 8 -75 c5 -41 18 -133 29
-205z m-2011 -1116 c-52 -231 -155 -747 -171 -857 -7 -45 -16 -81 -20 -80 -29
11 -314 257 -405 349 -92 95 -118 128 -154 201 -50 102 -65 201 -37 254 49 95
216 181 496 255 156 42 325 77 329 69 1 -4 -16 -90 -38 -191z"/>
<path d="M5118 4780 c-148 -25 -230 -78 -243 -157 -22 -134 -73 -352 -192
-823 -142 -562 -154 -630 -119 -669 36 -40 104 -23 193 47 65 52 99 110 124
209 28 112 81 272 256 763 156 437 192 561 180 613 -7 26 -9 27 -80 26 -39 -1
-93 -5 -119 -9z"/>
<path d="M4580 2955 c-88 -27 -170 -127 -186 -222 -9 -56 23 -123 70 -148 31
-17 40 -17 90 -6 121 27 224 100 267 188 50 102 30 160 -63 188 -63 18 -118
18 -178 0z"/>
</g>
</svg>
